G04*
G04 #@! TF.GenerationSoftware,Altium Limited,Altium Designer,19.1.5 (86)*
G04*
G04 Layer_Color=65535*
%FSLAX44Y44*%
%MOMM*%
G71*
G01*
G75*
%ADD10C,0.2540*%
%ADD11C,0.1270*%
%ADD12C,0.2500*%
%ADD13C,0.3810*%
%ADD14C,0.4000*%
%ADD15C,0.2000*%
%ADD16C,0.1524*%
%ADD17C,0.1520*%
G36*
X126691Y-32958D02*
D01*
D02*
G37*
G36*
X126816Y-30458D02*
D01*
D02*
G37*
D10*
X295928Y-42926D02*
G03*
X295928Y-42926I-1796J0D01*
G01*
X132588Y-285242D02*
G03*
X132588Y-285242I-1270J0D01*
G01*
X153434Y-258572D02*
G03*
X153434Y-258572I-1796J0D01*
G01*
X61214Y-163322D02*
G03*
X61214Y-163322I-1270J0D01*
G01*
X229870Y-325882D02*
G03*
X229870Y-325882I-1270J0D01*
G01*
X22606Y-47244D02*
G03*
X22606Y-47244I-1270J0D01*
G01*
X486918Y-26990D02*
G03*
X486918Y-26990I-2540J0D01*
G01*
X181610Y-348742D02*
Y-278892D01*
X243840Y-344932D02*
Y-281432D01*
X6096Y-91694D02*
Y-28194D01*
X68326Y-94234D02*
Y-24384D01*
D11*
X111316Y-44458D02*
G03*
X111316Y-44458I-250J0D01*
G01*
X422486Y-55378D02*
G03*
X422486Y-55378I-200J0D01*
G01*
X547560Y-357886D02*
Y-227886D01*
X494460Y-357886D02*
X547560D01*
X494460Y-227886D02*
X547560D01*
X494460Y-357886D02*
Y-227886D01*
X278560Y-357886D02*
Y-352886D01*
Y-357886D02*
X288560D01*
X488560D02*
X494460D01*
X488560Y-227886D02*
X508560D01*
X278560D02*
X288560D01*
X278560Y-232886D02*
Y-227886D01*
X543210Y-129490D02*
X546210D01*
X543210Y-205490D02*
X546210D01*
X517210Y-129490D02*
X521210D01*
X517210Y-205490D02*
X521210D01*
X546710D02*
Y-129490D01*
D12*
X132842Y-164926D02*
G03*
X132842Y-164926I-1250J0D01*
G01*
X455254Y-114661D02*
G03*
X455254Y-114661I-1250J0D01*
G01*
D13*
X489380Y-235736D02*
G03*
X489380Y-235736I-1270J0D01*
G01*
D14*
X374150Y-184080D02*
G03*
X374150Y-184080I-2000J0D01*
G01*
D15*
X498210Y-187490D02*
G03*
X498210Y-187490I-1000J0D01*
G01*
X162592Y-189926D02*
X167592D01*
X137592D02*
X142592D01*
X162592Y-159926D02*
X167592D01*
X137592D02*
X142592D01*
X264650Y-178580D02*
X357650D01*
X264650D02*
Y-85580D01*
X357650D01*
Y-178580D02*
Y-85580D01*
X439504Y-111911D02*
X444504D01*
X439504Y-80911D02*
X444504D01*
Y-111911D02*
Y-80911D01*
X439504Y-111911D02*
Y-80911D01*
X485648Y-20190D02*
X545648D01*
Y-79190D02*
Y-20190D01*
X469648Y-79190D02*
X545648D01*
X469648D02*
Y-39690D01*
D16*
X287528Y-5842D02*
X331216D01*
X299212Y-42672D02*
X331216D01*
X147816Y-41258D02*
Y-24958D01*
X106816Y-41258D02*
Y-24958D01*
X125730Y-56134D02*
X129794D01*
X125730Y-63754D02*
X129794D01*
X116586Y-219202D02*
Y-215138D01*
X108966Y-219202D02*
Y-215138D01*
X491998Y-107442D02*
Y-103378D01*
X499618Y-107442D02*
Y-103378D01*
X440690Y-135636D02*
Y-131572D01*
X448310Y-135636D02*
Y-131572D01*
X122428Y-219202D02*
Y-215138D01*
X130048Y-219202D02*
Y-215138D01*
X136906Y-219202D02*
Y-215138D01*
X144526Y-219202D02*
Y-215138D01*
X64516Y-144018D02*
X68580D01*
X64516Y-136398D02*
X68580D01*
X448056Y-162052D02*
Y-157988D01*
X440436Y-162052D02*
Y-157988D01*
X236220Y-236220D02*
X240284D01*
X236220Y-243840D02*
X240284D01*
X457962Y-185420D02*
X462026D01*
X457962Y-193040D02*
X462026D01*
X457962Y-198882D02*
X462026D01*
X457962Y-206502D02*
X462026D01*
X381254Y-43942D02*
Y-39878D01*
X373634Y-43942D02*
Y-39878D01*
X434848Y-49530D02*
Y-45466D01*
X427228Y-49530D02*
Y-45466D01*
X229108Y-91440D02*
Y-87376D01*
X236728Y-91440D02*
Y-87376D01*
X162306Y-43314D02*
Y-39250D01*
X154686Y-43314D02*
Y-39250D01*
X198882Y-176530D02*
Y-172466D01*
X191262Y-176530D02*
Y-172466D01*
X184912Y-176784D02*
Y-172720D01*
X177292Y-176784D02*
Y-172720D01*
X19812Y-180086D02*
Y-176022D01*
X27432Y-180086D02*
Y-176022D01*
X252730Y-202438D02*
X256794D01*
X252730Y-210058D02*
X256794D01*
X69596Y-177038D02*
Y-172974D01*
X77216Y-177038D02*
Y-172974D01*
X51562Y-205994D02*
X55626D01*
X51562Y-198374D02*
X55626D01*
X333502Y-50038D02*
X337566D01*
X333502Y-57658D02*
X337566D01*
X394970Y-156852D02*
Y-152788D01*
X387350Y-156852D02*
Y-152788D01*
X348488Y-204470D02*
X352552D01*
X348488Y-212090D02*
X352552D01*
X476250Y-151892D02*
Y-147828D01*
X483870Y-151892D02*
Y-147828D01*
X452628Y-35560D02*
Y-31496D01*
X460248Y-35560D02*
Y-31496D01*
X388620Y-126492D02*
Y-122428D01*
X396240Y-126492D02*
Y-122428D01*
X271021Y-31750D02*
X278638D01*
Y-27941D01*
X277368Y-26672D01*
X276099D01*
X274829Y-27941D01*
Y-31750D01*
Y-27941D01*
X273560Y-26672D01*
X272290D01*
X271021Y-27941D01*
Y-31750D01*
X278638Y-24132D02*
Y-21593D01*
Y-22863D01*
X271021D01*
X272290Y-24132D01*
X90173Y-39116D02*
X96520D01*
X97790Y-37846D01*
Y-35307D01*
X96520Y-34038D01*
X90173D01*
X91442Y-31498D02*
X90173Y-30229D01*
Y-27690D01*
X91442Y-26420D01*
X92712D01*
X93981Y-27690D01*
Y-28959D01*
Y-27690D01*
X95251Y-26420D01*
X96520D01*
X97790Y-27690D01*
Y-30229D01*
X96520Y-31498D01*
X432308Y-192532D02*
Y-184914D01*
X436117D01*
X437386Y-186184D01*
Y-188723D01*
X436117Y-189993D01*
X432308D01*
X434847D02*
X437386Y-192532D01*
X443734D02*
Y-184914D01*
X439925Y-188723D01*
X445004D01*
X432816Y-206502D02*
Y-198885D01*
X436625D01*
X437894Y-200154D01*
Y-202693D01*
X436625Y-203963D01*
X432816D01*
X435355D02*
X437894Y-206502D01*
X440434Y-200154D02*
X441703Y-198885D01*
X444242D01*
X445512Y-200154D01*
Y-201424D01*
X444242Y-202693D01*
X442973D01*
X444242D01*
X445512Y-203963D01*
Y-205232D01*
X444242Y-206502D01*
X441703D01*
X440434Y-205232D01*
X64773Y-270512D02*
Y-273051D01*
Y-271781D01*
X71120D01*
X72390Y-273051D01*
Y-274320D01*
X71120Y-275590D01*
X66042Y-267973D02*
X64773Y-266703D01*
Y-264164D01*
X66042Y-262894D01*
X67312D01*
X68581Y-264164D01*
Y-265433D01*
Y-264164D01*
X69851Y-262894D01*
X71120D01*
X72390Y-264164D01*
Y-266703D01*
X71120Y-267973D01*
X256289Y-356870D02*
X262636D01*
X263906Y-355600D01*
Y-353061D01*
X262636Y-351792D01*
X256289D01*
Y-344174D02*
Y-349253D01*
X260097D01*
X258828Y-346713D01*
Y-345444D01*
X260097Y-344174D01*
X262636D01*
X263906Y-345444D01*
Y-347983D01*
X262636Y-349253D01*
X227330Y-227330D02*
Y-219713D01*
X231139D01*
X232408Y-220982D01*
Y-223521D01*
X231139Y-224791D01*
X227330D01*
X229869D02*
X232408Y-227330D01*
X240026Y-219713D02*
X234947D01*
Y-223521D01*
X237487Y-222252D01*
X238756D01*
X240026Y-223521D01*
Y-226060D01*
X238756Y-227330D01*
X236217D01*
X234947Y-226060D01*
X397256Y-59439D02*
Y-65786D01*
X398526Y-67056D01*
X401065D01*
X402334Y-65786D01*
Y-59439D01*
X409952D02*
X407413Y-60708D01*
X404874Y-63247D01*
Y-65786D01*
X406143Y-67056D01*
X408682D01*
X409952Y-65786D01*
Y-64517D01*
X408682Y-63247D01*
X404874D01*
X429004Y-65534D02*
X427735Y-64264D01*
X425196D01*
X423926Y-65534D01*
Y-70612D01*
X425196Y-71882D01*
X427735D01*
X429004Y-70612D01*
X431544Y-65534D02*
X432813Y-64264D01*
X435352D01*
X436622Y-65534D01*
Y-66804D01*
X435352Y-68073D01*
X436622Y-69343D01*
Y-70612D01*
X435352Y-71882D01*
X432813D01*
X431544Y-70612D01*
Y-69343D01*
X432813Y-68073D01*
X431544Y-66804D01*
Y-65534D01*
X432813Y-68073D02*
X435352D01*
X380236Y-14226D02*
X378967Y-12957D01*
X376428D01*
X375158Y-14226D01*
Y-19304D01*
X376428Y-20574D01*
X378967D01*
X380236Y-19304D01*
X382775D02*
X384045Y-20574D01*
X386584D01*
X387854Y-19304D01*
Y-14226D01*
X386584Y-12957D01*
X384045D01*
X382775Y-14226D01*
Y-15496D01*
X384045Y-16765D01*
X387854D01*
X126210Y-121876D02*
Y-128224D01*
X127480Y-129494D01*
X130019D01*
X131288Y-128224D01*
Y-121876D01*
X137636Y-129494D02*
Y-121876D01*
X133827Y-125685D01*
X138906D01*
X32766Y-146053D02*
Y-152400D01*
X34036Y-153670D01*
X36575D01*
X37844Y-152400D01*
Y-146053D01*
X45462Y-153670D02*
X40384D01*
X45462Y-148592D01*
Y-147322D01*
X44192Y-146053D01*
X41653D01*
X40384Y-147322D01*
X410508Y-90826D02*
Y-97174D01*
X411778Y-98443D01*
X414317D01*
X415586Y-97174D01*
Y-90826D01*
X418125Y-98443D02*
X420665D01*
X419395D01*
Y-90826D01*
X418125Y-92095D01*
X79754Y-106174D02*
X78485Y-104904D01*
X75946D01*
X74676Y-106174D01*
Y-107444D01*
X75946Y-108713D01*
X78485D01*
X79754Y-109983D01*
Y-111252D01*
X78485Y-112522D01*
X75946D01*
X74676Y-111252D01*
X87372Y-112522D02*
X82294D01*
X87372Y-107444D01*
Y-106174D01*
X86102Y-104904D01*
X83563D01*
X82294Y-106174D01*
X167134Y-308866D02*
X165865Y-310135D01*
Y-312674D01*
X167134Y-313944D01*
X168404D01*
X169673Y-312674D01*
Y-310135D01*
X170943Y-308866D01*
X172212D01*
X173482Y-310135D01*
Y-312674D01*
X172212Y-313944D01*
X173482Y-306327D02*
Y-303787D01*
Y-305057D01*
X165865D01*
X167134Y-306327D01*
X120396Y-76708D02*
Y-69090D01*
X124205D01*
X125474Y-70360D01*
Y-72899D01*
X124205Y-74169D01*
X120396D01*
X122935D02*
X125474Y-76708D01*
X128013D02*
X130553D01*
X129283D01*
Y-69090D01*
X128013Y-70360D01*
X139440Y-69090D02*
X134361D01*
Y-72899D01*
X136901Y-71630D01*
X138170D01*
X139440Y-72899D01*
Y-75438D01*
X138170Y-76708D01*
X135631D01*
X134361Y-75438D01*
X100584Y-229616D02*
X92966D01*
Y-225807D01*
X94236Y-224538D01*
X96775D01*
X98045Y-225807D01*
Y-229616D01*
Y-227077D02*
X100584Y-224538D01*
Y-221999D02*
Y-219459D01*
Y-220729D01*
X92966D01*
X94236Y-221999D01*
Y-215651D02*
X92966Y-214381D01*
Y-211842D01*
X94236Y-210572D01*
X99314D01*
X100584Y-211842D01*
Y-214381D01*
X99314Y-215651D01*
X94236D01*
X112776Y-243078D02*
Y-235460D01*
X116585D01*
X117854Y-236730D01*
Y-239269D01*
X116585Y-240539D01*
X112776D01*
X115315D02*
X117854Y-243078D01*
X120393Y-241808D02*
X121663Y-243078D01*
X124202D01*
X125472Y-241808D01*
Y-236730D01*
X124202Y-235460D01*
X121663D01*
X120393Y-236730D01*
Y-238000D01*
X121663Y-239269D01*
X125472D01*
X135382Y-243078D02*
Y-235460D01*
X139191D01*
X140460Y-236730D01*
Y-239269D01*
X139191Y-240539D01*
X135382D01*
X137921D02*
X140460Y-243078D01*
X142999Y-236730D02*
X144269Y-235460D01*
X146808D01*
X148078Y-236730D01*
Y-238000D01*
X146808Y-239269D01*
X148078Y-240539D01*
Y-241808D01*
X146808Y-243078D01*
X144269D01*
X142999Y-241808D01*
Y-240539D01*
X144269Y-239269D01*
X142999Y-238000D01*
Y-236730D01*
X144269Y-239269D02*
X146808D01*
X60706Y-131572D02*
Y-123954D01*
X64515D01*
X65784Y-125224D01*
Y-127763D01*
X64515Y-129033D01*
X60706D01*
X63245D02*
X65784Y-131572D01*
X68323Y-123954D02*
X73402D01*
Y-125224D01*
X68323Y-130302D01*
Y-131572D01*
X454660Y-153162D02*
X462277D01*
Y-156971D01*
X461008Y-158240D01*
X458469D01*
X457199Y-156971D01*
Y-153162D01*
Y-155701D02*
X454660Y-158240D01*
X462277Y-165858D02*
X461008Y-163319D01*
X458469Y-160779D01*
X455930D01*
X454660Y-162049D01*
Y-164588D01*
X455930Y-165858D01*
X457199D01*
X458469Y-164588D01*
Y-160779D01*
X486410Y-110744D02*
X478792D01*
Y-106935D01*
X480062Y-105666D01*
X482601D01*
X483871Y-106935D01*
Y-110744D01*
Y-108205D02*
X486410Y-105666D01*
Y-98048D02*
Y-103126D01*
X481332Y-98048D01*
X480062D01*
X478792Y-99318D01*
Y-101857D01*
X480062Y-103126D01*
X435356Y-137160D02*
X427738D01*
Y-133351D01*
X429008Y-132082D01*
X431547D01*
X432817Y-133351D01*
Y-137160D01*
Y-134621D02*
X435356Y-132082D01*
Y-129543D02*
Y-127003D01*
Y-128273D01*
X427738D01*
X429008Y-129543D01*
X48260Y-213871D02*
Y-221488D01*
X53338D01*
X55877D02*
X58417D01*
X57147D01*
Y-213871D01*
X55877Y-215140D01*
X454535Y-65688D02*
Y-68227D01*
Y-66957D01*
X460883D01*
X462153Y-68227D01*
Y-69497D01*
X460883Y-70766D01*
X462153Y-58070D02*
Y-63149D01*
X457075Y-58070D01*
X455805D01*
X454535Y-59340D01*
Y-61879D01*
X455805Y-63149D01*
X485646Y-202948D02*
X483107D01*
X484377D01*
Y-209296D01*
X483107Y-210566D01*
X481838D01*
X480568Y-209296D01*
X488186Y-210566D02*
X490725D01*
X489455D01*
Y-202948D01*
X488186Y-204218D01*
X288549Y-206250D02*
X291088D01*
X289819D01*
Y-213868D01*
X288549D01*
X291088D01*
X299975Y-207520D02*
X298706Y-206250D01*
X296167D01*
X294897Y-207520D01*
Y-212598D01*
X296167Y-213868D01*
X298706D01*
X299975Y-212598D01*
X302514Y-213868D02*
X305054D01*
X303784D01*
Y-206250D01*
X302514Y-207520D01*
X408178Y-183645D02*
Y-191262D01*
X411987D01*
X413256Y-189992D01*
Y-184914D01*
X411987Y-183645D01*
X408178D01*
X420874Y-191262D02*
X415796D01*
X420874Y-186184D01*
Y-184914D01*
X419604Y-183645D01*
X417065D01*
X415796Y-184914D01*
X505970Y-107950D02*
X513588D01*
Y-104141D01*
X512318Y-102872D01*
X507240D01*
X505970Y-104141D01*
Y-107950D01*
X513588Y-100332D02*
Y-97793D01*
Y-99063D01*
X505970D01*
X507240Y-100332D01*
X170436Y-34038D02*
X169167Y-35307D01*
Y-37846D01*
X170436Y-39116D01*
X175514D01*
X176784Y-37846D01*
Y-35307D01*
X175514Y-34038D01*
X176784Y-31498D02*
Y-28959D01*
Y-30229D01*
X169167D01*
X170436Y-31498D01*
X169167Y-20072D02*
Y-25150D01*
X172975D01*
X171706Y-22611D01*
Y-21342D01*
X172975Y-20072D01*
X175514D01*
X176784Y-21342D01*
Y-23881D01*
X175514Y-25150D01*
X250696Y-218442D02*
X249427Y-217173D01*
X246888D01*
X245618Y-218442D01*
Y-223520D01*
X246888Y-224790D01*
X249427D01*
X250696Y-223520D01*
X253235Y-224790D02*
X255775D01*
X254505D01*
Y-217173D01*
X253235Y-218442D01*
X263392Y-224790D02*
Y-217173D01*
X259583Y-220981D01*
X264662D01*
X216156Y-93982D02*
X214886Y-95251D01*
Y-97790D01*
X216156Y-99060D01*
X221234D01*
X222504Y-97790D01*
Y-95251D01*
X221234Y-93982D01*
X222504Y-91442D02*
Y-88903D01*
Y-90173D01*
X214886D01*
X216156Y-91442D01*
Y-85094D02*
X214886Y-83825D01*
Y-81286D01*
X216156Y-80016D01*
X217426D01*
X218695Y-81286D01*
Y-82555D01*
Y-81286D01*
X219965Y-80016D01*
X221234D01*
X222504Y-81286D01*
Y-83825D01*
X221234Y-85094D01*
X390396Y-172214D02*
X389127Y-170944D01*
X386588D01*
X385318Y-172214D01*
Y-177292D01*
X386588Y-178562D01*
X389127D01*
X390396Y-177292D01*
X392935Y-178562D02*
X395475D01*
X394205D01*
Y-170944D01*
X392935Y-172214D01*
X404362Y-178562D02*
X399283D01*
X404362Y-173484D01*
Y-172214D01*
X403092Y-170944D01*
X400553D01*
X399283Y-172214D01*
X373378Y-203202D02*
X372109Y-201933D01*
X369570D01*
X368300Y-203202D01*
Y-208280D01*
X369570Y-209550D01*
X372109D01*
X373378Y-208280D01*
X375918Y-209550D02*
X378457D01*
X377187D01*
Y-201933D01*
X375918Y-203202D01*
X382266Y-209550D02*
X384805D01*
X383535D01*
Y-201933D01*
X382266Y-203202D01*
X304544Y-51818D02*
X303275Y-50549D01*
X300736D01*
X299466Y-51818D01*
Y-56896D01*
X300736Y-58166D01*
X303275D01*
X304544Y-56896D01*
X307083Y-58166D02*
X309623D01*
X308353D01*
Y-50549D01*
X307083Y-51818D01*
X313431D02*
X314701Y-50549D01*
X317240D01*
X318510Y-51818D01*
Y-56896D01*
X317240Y-58166D01*
X314701D01*
X313431Y-56896D01*
Y-51818D01*
X196852Y-205996D02*
X195583Y-207265D01*
Y-209804D01*
X196852Y-211074D01*
X201930D01*
X203200Y-209804D01*
Y-207265D01*
X201930Y-205996D01*
X195583Y-203456D02*
Y-198378D01*
X196852D01*
X201930Y-203456D01*
X203200D01*
X180596Y-207012D02*
X179326Y-208281D01*
Y-210820D01*
X180596Y-212090D01*
X185674D01*
X186944Y-210820D01*
Y-208281D01*
X185674Y-207012D01*
X179326Y-199394D02*
X180596Y-201933D01*
X183135Y-204473D01*
X185674D01*
X186944Y-203203D01*
Y-200664D01*
X185674Y-199394D01*
X184405D01*
X183135Y-200664D01*
Y-204473D01*
X392936Y-99062D02*
X391667Y-97793D01*
X389128D01*
X387858Y-99062D01*
Y-104140D01*
X389128Y-105410D01*
X391667D01*
X392936Y-104140D01*
X400554Y-97793D02*
X395476D01*
Y-101601D01*
X398015Y-100332D01*
X399284D01*
X400554Y-101601D01*
Y-104140D01*
X399284Y-105410D01*
X396745D01*
X395476Y-104140D01*
X19560Y-156466D02*
X18290Y-157735D01*
Y-160274D01*
X19560Y-161544D01*
X24638D01*
X25908Y-160274D01*
Y-157735D01*
X24638Y-156466D01*
X25908Y-150118D02*
X18290D01*
X22099Y-153926D01*
Y-148848D01*
X92708Y-173480D02*
X93977Y-172211D01*
Y-169672D01*
X92708Y-168402D01*
X87630D01*
X86360Y-169672D01*
Y-172211D01*
X87630Y-173480D01*
X92708Y-176019D02*
X93977Y-177289D01*
Y-179828D01*
X92708Y-181098D01*
X91438D01*
X90169Y-179828D01*
Y-178559D01*
Y-179828D01*
X88899Y-181098D01*
X87630D01*
X86360Y-179828D01*
Y-177289D01*
X87630Y-176019D01*
X441454Y-35562D02*
X440185Y-36831D01*
Y-39370D01*
X441454Y-40640D01*
X446532D01*
X447802Y-39370D01*
Y-36831D01*
X446532Y-35562D01*
X447802Y-27944D02*
Y-33022D01*
X442724Y-27944D01*
X441454D01*
X440185Y-29214D01*
Y-31753D01*
X441454Y-33022D01*
X480312Y-127510D02*
X479043Y-126241D01*
X476504D01*
X475234Y-127510D01*
Y-132588D01*
X476504Y-133858D01*
X479043D01*
X480312Y-132588D01*
X482851Y-133858D02*
X485391D01*
X484121D01*
Y-126241D01*
X482851Y-127510D01*
D17*
X100838Y-319532D02*
X107188D01*
X126238D02*
X132588D01*
X154178D02*
Y-262382D01*
X124968Y-261112D02*
X131318D01*
X99568D02*
X107188D01*
X79248Y-320802D02*
Y-261112D01*
X429768Y-174244D02*
Y-150114D01*
X411988Y-174244D02*
X429768D01*
X411988D02*
Y-150114D01*
X521970Y-113284D02*
Y-89154D01*
X539750D01*
Y-113284D02*
Y-89154D01*
M02*
