G04*
G04 #@! TF.GenerationSoftware,Altium Limited,Altium Designer,19.1.5 (86)*
G04*
G04 Layer_Physical_Order=1*
G04 Layer_Color=255*
%FSLAX44Y44*%
%MOMM*%
G71*
G01*
G75*
%ADD10C,0.2540*%
%ADD13C,0.3810*%
%ADD18R,0.8000X2.6000*%
%ADD19R,0.4000X0.6000*%
%ADD20R,2.4130X0.8800*%
%ADD21R,0.7000X0.9000*%
%ADD22R,0.9000X0.7000*%
%ADD23R,0.3000X0.6000*%
%ADD24R,0.6000X0.3000*%
%ADD25R,1.0000X3.1500*%
%ADD26R,1.0000X0.7000*%
%ADD27R,1.3000X1.0000*%
%ADD28R,1.0000X1.3000*%
%ADD29R,0.3500X0.8500*%
%ADD30R,1.0000X3.2000*%
G04:AMPARAMS|DCode=31|XSize=0.95mm|YSize=0.95mm|CornerRadius=0mm|HoleSize=0mm|Usage=FLASHONLY|Rotation=90.000|XOffset=0mm|YOffset=0mm|HoleType=Round|Shape=RoundedRectangle|*
%AMROUNDEDRECTD31*
21,1,0.9500,0.9500,0,0,90.0*
21,1,0.9500,0.9500,0,0,90.0*
1,1,0.0000,0.4750,0.4750*
1,1,0.0000,0.4750,-0.4750*
1,1,0.0000,-0.4750,-0.4750*
1,1,0.0000,-0.4750,0.4750*
%
%ADD31ROUNDEDRECTD31*%
%ADD32R,1.5000X0.6000*%
%ADD33R,0.6000X1.5000*%
%ADD34R,1.1000X0.6500*%
%ADD35R,1.9000X1.9000*%
%ADD36R,1.4000X1.6000*%
%ADD37R,1.3500X0.4000*%
%ADD62C,0.2032*%
%ADD63C,2.0015*%
%ADD64C,1.3500*%
%ADD65R,1.3500X1.3500*%
%ADD66O,1.8000X1.0000*%
%ADD67C,0.6350*%
G36*
X139316Y-38758D02*
X117016D01*
X114816Y-36958D01*
Y-28158D01*
X139316D01*
Y-38758D01*
D02*
G37*
D10*
X139700Y-22098D02*
X145034D01*
X155194Y-152066D02*
X157480Y-154352D01*
Y-158242D02*
Y-154352D01*
X128270Y-164846D02*
X135636D01*
X58674Y-146050D02*
Y-140582D01*
X59048Y-140208D01*
X52728Y-151996D02*
X58674Y-146050D01*
X52474Y-151996D02*
X52728D01*
X52474Y-163752D02*
Y-151996D01*
X45974Y-163752D02*
Y-156210D01*
X39375Y-185653D02*
X39474Y-185752D01*
X39370Y-185648D02*
X39375Y-185653D01*
X45720Y-170434D02*
Y-164006D01*
X45974Y-163752D01*
X39370Y-176784D02*
X45720Y-170434D01*
X39370Y-185648D02*
Y-176784D01*
X45974Y-185752D02*
X46034Y-185812D01*
Y-202124D02*
Y-185812D01*
Y-202124D02*
X46094Y-202184D01*
D13*
X156031Y-25146D02*
X156718D01*
X145034Y-22098D02*
X152983D01*
X156031Y-25146D01*
X158496Y-33528D02*
X158750Y-33782D01*
X157988Y-34290D02*
X158242Y-34544D01*
X343034Y-60572D02*
Y-53848D01*
X340717Y-62889D02*
X343034Y-60572D01*
X346590Y-45212D02*
X353676D01*
X356616Y-42272D01*
X343034Y-48768D02*
X346590Y-45212D01*
X343034Y-53848D02*
Y-48768D01*
X338414Y-62889D02*
X340717D01*
X335725Y-65578D02*
X338414Y-62889D01*
X335725Y-74005D02*
Y-65578D01*
X222758Y-93218D02*
Y-69088D01*
Y-93218D02*
X226568Y-97028D01*
X335150Y-74580D02*
X335725Y-74005D01*
X155194Y-152066D02*
X175180D01*
X181102Y-157988D01*
X125770Y-152066D02*
X155194D01*
X107696Y-189381D02*
Y-176664D01*
X107569Y-189508D02*
X107696Y-189381D01*
X107569Y-192480D02*
Y-189508D01*
X103378Y-196671D02*
X107569Y-192480D01*
X107562Y-176530D02*
X107696Y-176664D01*
X107562Y-176530D02*
Y-170274D01*
X103378Y-197358D02*
Y-196671D01*
X107562Y-170274D02*
X113010Y-164826D01*
X125770Y-152066D01*
X113010Y-164826D02*
X113030Y-164846D01*
X128270D01*
X85090Y-352552D02*
X137922D01*
X68834Y-336296D02*
X85090Y-352552D01*
X68834Y-336296D02*
Y-220218D01*
X137922Y-352552D02*
X159512Y-330962D01*
X146229Y-316992D02*
X159512Y-330275D01*
X141628Y-316992D02*
X146229D01*
X159512Y-330962D02*
Y-330275D01*
X141478Y-316842D02*
X141628Y-316992D01*
X159512Y-330962D02*
X180848Y-309626D01*
X400227Y-46559D02*
Y-23699D01*
X410972Y-12954D01*
X397408Y-49378D02*
X400227Y-46559D01*
X391036Y-49378D02*
X397408D01*
X391020Y-49394D02*
X391036Y-49378D01*
X377460Y-49394D02*
X391020D01*
X377444Y-49410D02*
X377460Y-49394D01*
X445008Y-51435D02*
Y-32004D01*
Y-70866D02*
Y-51435D01*
X444627D02*
X445008D01*
X440690Y-55372D02*
X444627Y-51435D01*
X431412Y-55372D02*
X440690D01*
X431038Y-54998D02*
X431412Y-55372D01*
X415036Y-52766D02*
X417268Y-54998D01*
X431038D01*
X415036Y-52766D02*
Y-49378D01*
X414934Y-49276D02*
X415036Y-49378D01*
X445008Y-32004D02*
X451358Y-25654D01*
X456064D01*
X445008Y-70866D02*
X454152Y-80010D01*
X135262Y-59944D02*
X144780D01*
X147574Y-57150D01*
Y-45777D01*
X152260Y-41091D01*
X156010D01*
X158242Y-38859D01*
Y-34544D01*
X157988Y-34290D02*
X158496Y-33782D01*
X356616Y-42272D02*
Y-12700D01*
X310642Y-305943D02*
X326898Y-322199D01*
X158242Y-33528D02*
Y-27357D01*
Y-33528D02*
X158496Y-33782D01*
X90678Y-336296D02*
X95504Y-341122D01*
X114554D01*
X90678Y-336296D02*
Y-316842D01*
X181102Y-167252D02*
Y-157988D01*
X194945Y-167125D02*
X195072Y-166998D01*
X181229Y-167125D02*
X194945D01*
X181102Y-167252D02*
X181229Y-167125D01*
X371602Y-213868D02*
X434340D01*
X366014Y-208280D02*
X371602Y-213868D01*
X257302Y-284707D02*
Y-261620D01*
X232383Y-309626D02*
X257302Y-284707D01*
X180848Y-309626D02*
X232383D01*
X310642Y-305943D02*
Y-228804D01*
X311560Y-227886D01*
X246888Y-213868D02*
Y-206622D01*
X247262Y-206248D01*
X246888Y-213868D02*
X257302Y-224282D01*
Y-261620D02*
Y-224282D01*
X245618Y-249936D02*
Y-240164D01*
X245752Y-240030D01*
X245618Y-249936D02*
X257302Y-261620D01*
X326898Y-337312D02*
Y-322199D01*
X476758Y-38608D02*
X484566D01*
X463804Y-25654D02*
X476758Y-38608D01*
X484566D02*
X485648Y-39690D01*
X456812Y-25654D02*
X463804D01*
X456438Y-26028D02*
X456812Y-25654D01*
X454152Y-86763D02*
Y-80010D01*
X454004Y-86911D02*
X454152Y-86763D01*
X456064Y-25654D02*
X456438Y-26028D01*
X296560Y-245476D02*
Y-227886D01*
X248158Y-199390D02*
X257968Y-189580D01*
X271150D01*
X248158Y-205352D02*
Y-199390D01*
X247262Y-206248D02*
X248158Y-205352D01*
X68834Y-220218D02*
Y-206502D01*
X76962Y-198374D01*
X61094Y-212478D02*
X68834Y-220218D01*
X61094Y-212478D02*
Y-202184D01*
X17660Y-170554D02*
X23622D01*
X14478Y-173736D02*
X17660Y-170554D01*
X14478Y-204216D02*
Y-173736D01*
X52629Y-164084D02*
X56134D01*
X52474Y-163929D02*
X52629Y-164084D01*
X52474Y-163929D02*
Y-163752D01*
X56134Y-164084D02*
X60198Y-168148D01*
Y-168402D02*
Y-168148D01*
Y-168402D02*
X64461Y-172665D01*
Y-180793D02*
Y-172665D01*
Y-180793D02*
X66040Y-182372D01*
X73272D01*
X73406Y-182506D01*
X61094Y-187318D02*
X66040Y-182372D01*
X61094Y-202184D02*
Y-187318D01*
X11684Y-135636D02*
Y-124460D01*
Y-135636D02*
X18288Y-142240D01*
X32004D01*
X45974Y-156210D01*
X23721Y-185653D02*
X39375D01*
X23622Y-185554D02*
X23721Y-185653D01*
X11684Y-124460D02*
X32258Y-103886D01*
Y-67564D01*
X22098Y-57404D02*
X32258Y-67564D01*
X241511Y-99525D02*
X253095D01*
X239522Y-97536D02*
X241511Y-99525D01*
X233546Y-97536D02*
X239522D01*
X226568Y-97028D02*
X232798D01*
X232918Y-96908D01*
X233546Y-97536D01*
X253095Y-99525D02*
X253650Y-100080D01*
X407670Y-200152D02*
X420878D01*
X358020Y-208280D02*
X366014D01*
X351500Y-189230D02*
X355600D01*
X351150Y-189580D02*
X351500Y-189230D01*
X355600D02*
X358020Y-191650D01*
Y-208280D02*
Y-191650D01*
X391160Y-183642D02*
X407670Y-200152D01*
X391160Y-183642D02*
Y-162320D01*
X383290Y-164080D02*
X384810Y-162560D01*
X368650Y-164080D02*
X383290D01*
X384810Y-162560D02*
X390920D01*
X391160Y-162320D01*
D18*
X294372Y-22606D02*
D03*
X309372D02*
D03*
X324372D02*
D03*
D19*
X115316Y-44458D02*
D03*
X121316D02*
D03*
X127316D02*
D03*
X133316D02*
D03*
X139316D02*
D03*
Y-22458D02*
D03*
X133316D02*
D03*
X127316D02*
D03*
X121316D02*
D03*
X115316D02*
D03*
D20*
X127000Y-32512D02*
D03*
D21*
X135262Y-59944D02*
D03*
X120262D02*
D03*
X59048Y-140208D02*
D03*
X74048D02*
D03*
X245752Y-240030D02*
D03*
X230752D02*
D03*
X467494Y-189230D02*
D03*
X452494D02*
D03*
X467494Y-202692D02*
D03*
X452494D02*
D03*
X262262Y-206248D02*
D03*
X247262D02*
D03*
X46094Y-202184D02*
D03*
X61094D02*
D03*
X343034Y-53848D02*
D03*
X328034D02*
D03*
X358020Y-208280D02*
D03*
X343020D02*
D03*
D22*
X112776Y-224670D02*
D03*
Y-209670D02*
D03*
X495808Y-97910D02*
D03*
Y-112910D02*
D03*
X444500Y-126104D02*
D03*
Y-141104D02*
D03*
X126238Y-209670D02*
D03*
Y-224670D02*
D03*
X140716Y-209670D02*
D03*
Y-224670D02*
D03*
X444246Y-167520D02*
D03*
Y-152520D02*
D03*
X377444Y-49410D02*
D03*
Y-34410D02*
D03*
X431038Y-54998D02*
D03*
Y-39998D02*
D03*
X232918Y-81908D02*
D03*
Y-96908D02*
D03*
X158496Y-48782D02*
D03*
Y-33782D02*
D03*
X195072Y-181998D02*
D03*
Y-166998D02*
D03*
X181102Y-182252D02*
D03*
Y-167252D02*
D03*
X23622Y-170554D02*
D03*
Y-185554D02*
D03*
X73406Y-167506D02*
D03*
Y-182506D02*
D03*
X391160Y-162320D02*
D03*
Y-147320D02*
D03*
X480060Y-142360D02*
D03*
Y-157360D02*
D03*
X456438Y-26028D02*
D03*
Y-41028D02*
D03*
X392430Y-116960D02*
D03*
Y-131960D02*
D03*
D23*
X147592Y-162926D02*
D03*
X152592D02*
D03*
X157592D02*
D03*
Y-186926D02*
D03*
X152592D02*
D03*
X147592D02*
D03*
D24*
X164592Y-164926D02*
D03*
Y-169926D02*
D03*
Y-174926D02*
D03*
Y-179926D02*
D03*
Y-184926D02*
D03*
X140592D02*
D03*
Y-179926D02*
D03*
Y-174926D02*
D03*
Y-169926D02*
D03*
Y-164926D02*
D03*
D25*
X116078Y-316842D02*
D03*
Y-266342D02*
D03*
X141478Y-316842D02*
D03*
Y-266342D02*
D03*
X90678Y-316842D02*
D03*
Y-266342D02*
D03*
D26*
X391036Y-49378D02*
D03*
Y-30378D02*
D03*
X415036Y-49378D02*
D03*
Y-39878D02*
D03*
Y-30378D02*
D03*
D27*
X278560Y-285386D02*
D03*
Y-240386D02*
D03*
Y-255386D02*
D03*
Y-270386D02*
D03*
Y-300386D02*
D03*
Y-315386D02*
D03*
Y-330386D02*
D03*
Y-345386D02*
D03*
D28*
X296560Y-357886D02*
D03*
X311560D02*
D03*
X326560D02*
D03*
X341560D02*
D03*
X356560D02*
D03*
X371560D02*
D03*
X386560D02*
D03*
X401560D02*
D03*
X416560D02*
D03*
X431560D02*
D03*
X446560D02*
D03*
X461560D02*
D03*
X476560D02*
D03*
Y-227886D02*
D03*
X461560D02*
D03*
X446560D02*
D03*
X431560D02*
D03*
X416560D02*
D03*
X401560D02*
D03*
X386560D02*
D03*
X371560D02*
D03*
X356560D02*
D03*
X341560D02*
D03*
X326560D02*
D03*
X311560D02*
D03*
X296560D02*
D03*
D29*
X52474Y-163752D02*
D03*
X45974D02*
D03*
X39474D02*
D03*
X52474Y-185752D02*
D03*
X45974D02*
D03*
X39474D02*
D03*
D30*
X193360Y-281722D02*
D03*
X233360D02*
D03*
X193360Y-349722D02*
D03*
X233360D02*
D03*
X16576Y-23404D02*
D03*
X56576D02*
D03*
X16576Y-91404D02*
D03*
X56576D02*
D03*
D31*
X420878Y-150234D02*
D03*
Y-165234D02*
D03*
X530860Y-113164D02*
D03*
Y-98164D02*
D03*
D32*
X368650Y-172080D02*
D03*
Y-164080D02*
D03*
Y-156080D02*
D03*
Y-148080D02*
D03*
Y-140080D02*
D03*
Y-132080D02*
D03*
Y-124080D02*
D03*
Y-116080D02*
D03*
Y-108080D02*
D03*
Y-100080D02*
D03*
Y-92080D02*
D03*
X253650D02*
D03*
Y-100080D02*
D03*
Y-108080D02*
D03*
Y-116080D02*
D03*
Y-124080D02*
D03*
Y-132080D02*
D03*
Y-140080D02*
D03*
Y-148080D02*
D03*
Y-156080D02*
D03*
Y-164080D02*
D03*
Y-172080D02*
D03*
D33*
X351150Y-74580D02*
D03*
X343150D02*
D03*
X335150D02*
D03*
X327150D02*
D03*
X319150D02*
D03*
X311150D02*
D03*
X303150D02*
D03*
X295150D02*
D03*
X287150D02*
D03*
X279150D02*
D03*
X271150D02*
D03*
Y-189580D02*
D03*
X279150D02*
D03*
X287150D02*
D03*
X295150D02*
D03*
X303150D02*
D03*
X311150D02*
D03*
X319150D02*
D03*
X327150D02*
D03*
X335150D02*
D03*
X343150D02*
D03*
X351150D02*
D03*
D34*
X454004Y-105911D02*
D03*
Y-96411D02*
D03*
Y-86911D02*
D03*
X430004D02*
D03*
Y-105911D02*
D03*
D35*
X532210Y-155490D02*
D03*
Y-179490D02*
D03*
D36*
X507710Y-135490D02*
D03*
Y-199490D02*
D03*
D37*
X505460Y-154490D02*
D03*
Y-160990D02*
D03*
Y-167490D02*
D03*
Y-173990D02*
D03*
Y-180490D02*
D03*
D62*
X327152Y-74930D02*
Y-54730D01*
X110398Y-44352D02*
X115446D01*
X332994Y-5842D02*
X344424Y-17272D01*
X311912Y-5842D02*
X332994D01*
X309372Y-8382D02*
X311912Y-5842D01*
X319150Y-44860D02*
X324372Y-39638D01*
X319150Y-74580D02*
Y-44860D01*
X324372Y-39638D02*
Y-22606D01*
X326898Y-75184D02*
X327150Y-74932D01*
X309372Y-22606D02*
Y-8382D01*
X294372Y-45960D02*
X311150Y-62738D01*
X294372Y-45960D02*
Y-22606D01*
X111306Y-32512D02*
X127000D01*
X105156Y-38662D02*
X111306Y-32512D01*
X105156Y-49594D02*
Y-38662D01*
X133446Y-44352D02*
X139446D01*
X105156Y-49594D02*
X110398Y-44352D01*
X105156Y-57404D02*
Y-49594D01*
X121446Y-51528D02*
Y-44352D01*
X120396Y-52578D02*
X121446Y-51528D01*
X127446Y-65978D02*
X133721Y-72253D01*
X127446Y-65978D02*
Y-44352D01*
X115750Y-22048D02*
Y-16017D01*
X128524Y-10922D02*
Y-10668D01*
X121412Y-18034D02*
X128524Y-10922D01*
X121412Y-22318D02*
Y-18034D01*
X133604Y-22194D02*
Y-18034D01*
X136398Y-15240D01*
X156331D01*
X344424Y-37592D02*
Y-17272D01*
X328168Y-47498D02*
X338074Y-37592D01*
X344424D01*
X214426Y-61170D02*
X217811Y-57785D01*
X193574Y-61170D02*
X214426D01*
X174997Y-42593D02*
X193574Y-61170D01*
X174997Y-42593D02*
Y-33906D01*
X263017Y-57785D02*
X270510Y-65278D01*
X217811Y-57785D02*
X263017D01*
X153440Y-65742D02*
X216320D01*
X146929Y-72253D02*
X153440Y-65742D01*
X216320D02*
X219705Y-62357D01*
X246882D02*
X264594Y-80069D01*
X219705Y-62357D02*
X246882D01*
X228854Y-10668D02*
X276352Y-58166D01*
X128524Y-10668D02*
X228854D01*
X236474Y-6096D02*
X281813Y-51435D01*
X125671Y-6096D02*
X236474D01*
X115750Y-16017D02*
X125671Y-6096D01*
X156331Y-15240D02*
X174997Y-33906D01*
X328168Y-97790D02*
X343154Y-82804D01*
X323342Y-97790D02*
X328168D01*
X343154Y-82804D02*
Y-74584D01*
X343150Y-74580D02*
X343154Y-74584D01*
X324612Y-135365D02*
Y-109220D01*
X351028Y-82804D01*
X332486Y-109474D02*
X363606Y-78354D01*
X397642D01*
X332486Y-125222D02*
Y-109474D01*
X351028Y-82804D02*
Y-74702D01*
X351150Y-74580D01*
X178816Y-127762D02*
X202184D01*
X176657Y-134493D02*
X212338D01*
X173101Y-139065D02*
X214232D01*
X107575Y-145796D02*
X200152D01*
X279146Y-146113D02*
Y-129032D01*
X209925Y-122174D02*
X215138D01*
X271526Y-146812D02*
Y-121920D01*
X203962Y-111252D02*
Y-104648D01*
X183515Y-84201D02*
X203962Y-104648D01*
X170440Y-84201D02*
X183515D01*
X170385Y-84256D02*
X170440Y-84201D01*
X205988Y-118237D02*
X209925Y-122174D01*
X177419Y-118237D02*
X205988D01*
X156972Y-97790D02*
X177419Y-118237D01*
X249682Y-81012D02*
Y-74676D01*
X369570Y-44614D02*
X372424Y-41761D01*
X369570Y-62738D02*
Y-44614D01*
X377444Y-40386D02*
Y-34410D01*
X376069Y-41761D02*
X377444Y-40386D01*
X372424Y-41761D02*
X376069D01*
X369570Y-62738D02*
X374142Y-67310D01*
X379222D01*
X96647Y-156724D02*
X107575Y-145796D01*
X132334Y-185166D02*
X140352D01*
X140592Y-184926D01*
X123444Y-194056D02*
X132334Y-185166D01*
X130048Y-198120D02*
X145034D01*
X126238Y-201930D02*
X130048Y-198120D01*
X145034D02*
X147654Y-195500D01*
X126238Y-209670D02*
Y-201930D01*
X113030Y-209416D02*
Y-191770D01*
X124874Y-179926D01*
X199274Y-174926D02*
X199544Y-175196D01*
X164592Y-174926D02*
X199274D01*
X152908Y-175006D02*
X157828Y-179926D01*
X164592D01*
X174084D01*
X164592Y-184926D02*
X171106D01*
X157592Y-195184D02*
Y-186926D01*
X152592Y-198670D02*
X152654Y-198732D01*
X152592Y-198670D02*
Y-186926D01*
X147592Y-195438D02*
X147654Y-195500D01*
X147592Y-195438D02*
Y-186926D01*
X124874Y-179926D02*
X140592D01*
X152908Y-175006D02*
X157988Y-169926D01*
X164592D01*
X157480Y-162814D02*
Y-158242D01*
Y-162814D02*
X157592Y-162926D01*
X135636Y-164846D02*
X140512D01*
X140592Y-164926D01*
X452240Y-188976D02*
X452494Y-189230D01*
X452240Y-188976D02*
Y-188976D01*
X440676D02*
X452240D01*
X408432D02*
X440676D01*
X152527Y-358013D02*
X184150Y-326390D01*
X38481Y-358013D02*
X152527D01*
X13970Y-333502D02*
X38481Y-358013D01*
X467240Y-202692D02*
X475742D01*
X467748Y-202438D02*
X467748Y-202438D01*
X466986Y-189230D02*
X467240Y-188976D01*
X116078Y-266342D02*
Y-245618D01*
X141478Y-266342D02*
Y-230124D01*
X460184Y-208306D02*
Y-179768D01*
Y-208306D02*
X462626Y-210748D01*
X478282Y-193889D02*
X498181Y-173990D01*
X478282Y-200152D02*
Y-193889D01*
X472948Y-188976D02*
X494180Y-167744D01*
X467240Y-188976D02*
X472948D01*
X467240Y-188976D02*
X467240Y-188976D01*
X494180Y-167744D02*
Y-167490D01*
X462626Y-210748D02*
X474152D01*
X498181Y-173990D02*
X505460D01*
X496966Y-187934D02*
X503454D01*
X505460Y-185928D02*
Y-180490D01*
X474152Y-210748D02*
X496966Y-187934D01*
X503454D02*
X505460Y-185928D01*
X401828Y-182372D02*
X408432Y-188976D01*
X530606Y-112910D02*
X530860Y-113164D01*
X495808Y-112910D02*
X530606D01*
X495674Y-98044D02*
X495808Y-97910D01*
X487426Y-98044D02*
X495674D01*
X397642Y-78354D02*
X405688Y-70308D01*
Y-33478D01*
X408432Y-30734D01*
X414680D01*
X415036Y-30378D01*
X377444Y-34410D02*
X377444Y-34410D01*
X377578Y-34544D02*
X389716D01*
X390906Y-33354D01*
Y-30508D01*
X377444Y-34410D02*
X377578Y-34544D01*
X390906Y-30508D02*
X391036Y-30378D01*
X430918Y-39878D02*
X431038Y-39998D01*
X430784Y-39744D02*
X430918Y-39878D01*
X430784Y-39744D02*
Y-28956D01*
X415036Y-39878D02*
X430918D01*
X96647Y-211709D02*
Y-156724D01*
X90678Y-266342D02*
Y-146050D01*
X107188Y-97790D02*
X156972D01*
X154686Y-103632D02*
X178816Y-127762D01*
X101213Y-103632D02*
X154686D01*
X212338Y-134493D02*
X230751Y-116080D01*
X153670Y-111506D02*
X176657Y-134493D01*
X113030Y-111506D02*
X153670D01*
X152908Y-118872D02*
X173101Y-139065D01*
X103124Y-118872D02*
X152908D01*
X214232Y-139065D02*
X229217Y-124080D01*
X103173Y-84256D02*
X170385D01*
X173228Y-92964D02*
Y-90932D01*
Y-92964D02*
X191770Y-111506D01*
X98927Y-101346D02*
X101213Y-103632D01*
X264594Y-83194D02*
Y-80069D01*
X328168Y-53714D02*
Y-47498D01*
X328034Y-53848D02*
X328168Y-53714D01*
X327150Y-74932D02*
X327152Y-74930D01*
Y-54730D02*
X328034Y-53848D01*
X327150Y-74932D02*
Y-74580D01*
X311150D02*
Y-62738D01*
X295910Y-357236D02*
X296560Y-357886D01*
X295910Y-357236D02*
Y-350012D01*
X299212Y-346710D01*
Y-337820D01*
X292100Y-344932D02*
X299212Y-337820D01*
X158750Y-51896D02*
Y-49036D01*
Y-51896D02*
X159940Y-53086D01*
X170434D01*
X158496Y-48782D02*
X158750Y-49036D01*
X131318Y-79684D02*
X164156D01*
X120262Y-68628D02*
X131318Y-79684D01*
X120262Y-68628D02*
Y-59944D01*
X120396Y-59810D02*
Y-52578D01*
X120262Y-59944D02*
X120396Y-59810D01*
X133721Y-72253D02*
X146929D01*
X281813Y-51435D02*
X287175D01*
X303150Y-67410D01*
Y-74580D02*
Y-67410D01*
X276352Y-58166D02*
X285906D01*
X295148Y-67408D01*
Y-74578D02*
Y-67408D01*
Y-74578D02*
X295150Y-74580D01*
X100076Y-90678D02*
X107188Y-97790D01*
X140462Y-229108D02*
Y-224924D01*
X140716Y-224670D01*
X140462Y-229108D02*
X141478Y-230124D01*
X130488Y-216476D02*
X195004D01*
X219456Y-192024D01*
X126238Y-220726D02*
X130488Y-216476D01*
X126238Y-284480D02*
Y-224670D01*
X96647Y-211709D02*
X101410Y-216472D01*
X109792D01*
X113030Y-219710D01*
Y-222186D02*
Y-219710D01*
X111265Y-223159D02*
X112057D01*
X113030Y-222186D01*
X111265Y-223159D02*
X112776Y-224670D01*
Y-242316D02*
X116078Y-245618D01*
X112776Y-242316D02*
Y-224670D01*
X201288Y-224670D02*
X224663Y-201295D01*
X140716Y-224670D02*
X201288D01*
X126238D02*
Y-220726D01*
X161798Y-199390D02*
X203454D01*
X157592Y-195184D02*
X161798Y-199390D01*
X141716Y-209670D02*
X152654Y-198732D01*
X140716Y-209670D02*
X141716D01*
X112776Y-209670D02*
X113030Y-209416D01*
X84836Y-140208D02*
X90678Y-146050D01*
X74048Y-140208D02*
X84836D01*
X176276Y-182118D02*
X180968D01*
X181102Y-182252D01*
X174084Y-179926D02*
X176276Y-182118D01*
X171106Y-184926D02*
X176934Y-190754D01*
X198986D01*
X181102Y-182252D02*
X194818D01*
X195072Y-181998D01*
X198986Y-190754D02*
X210058Y-179682D01*
Y-156227D01*
X214884Y-157867D02*
X224288Y-148463D01*
X214884Y-187960D02*
Y-157867D01*
X203454Y-156365D02*
X227739Y-132080D01*
X253650D01*
X203454Y-171286D02*
Y-156365D01*
X224288Y-148463D02*
X229864D01*
X219456Y-162814D02*
X227076Y-155194D01*
X219456Y-192024D02*
Y-162814D01*
X229864Y-148463D02*
X233934Y-152533D01*
X203454Y-199390D02*
X214884Y-187960D01*
X199544Y-175196D02*
X203454Y-171286D01*
X227076Y-171958D02*
Y-165862D01*
X233934Y-173736D02*
Y-152533D01*
X224663Y-174371D02*
X227076Y-171958D01*
X224663Y-201295D02*
Y-174371D01*
X400431Y-206883D02*
X443611D01*
X384810Y-191262D02*
X400431Y-206883D01*
X443611D02*
X447802Y-202692D01*
X372303Y-191262D02*
X384810D01*
X357594Y-176553D02*
X372303Y-191262D01*
X447802Y-202692D02*
X452240D01*
X214122Y-277114D02*
Y-255016D01*
X209514Y-281722D02*
X214122Y-277114D01*
X193360Y-281722D02*
X209514D01*
X231140Y-246634D02*
X233360Y-248854D01*
Y-281722D02*
Y-248854D01*
X184150Y-326390D02*
X230469D01*
X266446Y-290413D01*
X230752Y-205112D02*
X242570Y-193294D01*
X230752Y-240030D02*
Y-205112D01*
X231140Y-246634D02*
Y-240418D01*
X230752Y-240030D02*
X231140Y-240418D01*
X266446Y-235971D02*
X288549Y-213868D01*
X266446Y-290413D02*
Y-235971D01*
X456438Y-53040D02*
Y-41028D01*
Y-65051D02*
Y-53040D01*
X463088Y-59690D01*
X485648D01*
X456438Y-65051D02*
X464929Y-73542D01*
Y-93363D02*
Y-73542D01*
X461881Y-96411D02*
X464929Y-93363D01*
X454004Y-96411D02*
X461881D01*
X359278Y-92080D02*
X368650D01*
X339979Y-111379D02*
X359278Y-92080D01*
X339979Y-144266D02*
Y-111379D01*
X360168Y-100080D02*
X368650D01*
X344551Y-115697D02*
X360168Y-100080D01*
X344551Y-139319D02*
Y-115697D01*
X358634Y-108080D02*
X368650D01*
X351282Y-115432D02*
X358634Y-108080D01*
X351282Y-133096D02*
Y-115432D01*
X344551Y-139319D02*
X346964Y-141732D01*
X290322Y-171196D02*
X295150Y-176024D01*
X290322Y-171196D02*
Y-125984D01*
X295150Y-189580D02*
Y-176024D01*
X299974Y-165337D02*
X311150Y-176513D01*
X299974Y-165337D02*
Y-153924D01*
X306197Y-137033D02*
X314325Y-145161D01*
X306197Y-137033D02*
Y-124797D01*
X264594Y-83194D02*
X306197Y-124797D01*
X279950Y-91948D02*
X295656D01*
X279150Y-91148D02*
X279950Y-91948D01*
X279150Y-91148D02*
Y-74580D01*
X314325Y-173222D02*
Y-145161D01*
X313075Y-136759D02*
X321056Y-144740D01*
X313075Y-136759D02*
Y-109367D01*
X320040Y-137259D02*
Y-109866D01*
Y-137259D02*
X325628Y-142847D01*
X324612Y-135365D02*
X338709Y-149462D01*
X295656Y-91948D02*
X313075Y-109367D01*
X297550Y-87376D02*
X320040Y-109866D01*
X292776Y-87376D02*
X297550D01*
X288848Y-83448D02*
X292776Y-87376D01*
X288848Y-83448D02*
Y-76278D01*
X287150Y-74580D02*
X288848Y-76278D01*
X321056Y-170434D02*
Y-144740D01*
X325628Y-163322D02*
Y-142847D01*
Y-163322D02*
X331978Y-169672D01*
X314325Y-173222D02*
X319538Y-178435D01*
X311150Y-189580D02*
Y-176513D01*
X319538Y-178435D02*
X334258D01*
X416306Y-176530D02*
X456946D01*
X410464Y-170688D02*
Y-131826D01*
Y-170688D02*
X416306Y-176530D01*
X402718Y-124080D02*
X410464Y-131826D01*
X368650Y-124080D02*
X402718D01*
X437134Y-167640D02*
X444126D01*
X444246Y-167520D01*
X434728Y-165234D02*
X437134Y-167640D01*
X420878Y-165234D02*
X434728D01*
X430022Y-119888D02*
X436238Y-126104D01*
X444500D01*
Y-141104D02*
X454526D01*
X444246Y-152520D02*
X444500Y-152266D01*
Y-141104D01*
X454004Y-105911D02*
X465843D01*
X442747Y-108433D02*
X455472Y-121158D01*
X442747Y-108433D02*
Y-104673D01*
X430022Y-91948D02*
X442747Y-104673D01*
X430022Y-91948D02*
Y-86929D01*
X430004Y-86911D02*
X430022Y-86929D01*
Y-119888D02*
Y-105929D01*
X430004Y-105911D02*
X430022Y-105929D01*
X339979Y-144266D02*
X348234Y-152521D01*
X67685Y-48768D02*
X103173Y-84256D01*
X35306Y-48768D02*
X67685D01*
X41910Y-112776D02*
X42164Y-112522D01*
Y-55626D01*
X35306Y-48768D02*
X42164Y-55626D01*
X16510Y-48768D02*
X35306D01*
X13970Y-51308D02*
X16510Y-48768D01*
X164156Y-79684D02*
X170434Y-73406D01*
X97028Y-101346D02*
X98927D01*
X210058Y-156227D02*
X226205Y-140080D01*
X253650D01*
X348234Y-152908D02*
Y-152521D01*
X338709Y-173984D02*
Y-149462D01*
X480060Y-105410D02*
X487426Y-98044D01*
X486664Y-85090D02*
X524510D01*
X465843Y-105911D02*
X486664Y-85090D01*
X233360Y-281722D02*
X233746Y-281336D01*
X375158Y-310388D02*
X449834D01*
X318262Y-253492D02*
X375158Y-310388D01*
X318262Y-253492D02*
Y-245110D01*
X279150Y-200656D02*
Y-189580D01*
X274574Y-205232D02*
X279150Y-200656D01*
X263278Y-205232D02*
X274574D01*
X262262Y-206248D02*
X263278Y-205232D01*
X288549Y-213868D02*
X297768D01*
X299212Y-337820D02*
Y-316484D01*
X279014Y-344932D02*
X292100D01*
X278560Y-345386D02*
X279014Y-344932D01*
X68580Y-140208D02*
X74048D01*
X74048Y-140208D01*
X66802Y-138430D02*
X68580Y-140208D01*
X66802Y-138430D02*
Y-130107D01*
X88646Y-131826D02*
Y-112268D01*
X66040Y-89662D02*
X88646Y-112268D01*
X58318Y-89662D02*
X66040D01*
X56576Y-91404D02*
X58318Y-89662D01*
X53027Y-116332D02*
X66802Y-130107D01*
X45466Y-116332D02*
X53027D01*
X476250Y-236728D02*
Y-228196D01*
X476560Y-227886D01*
X458216Y-254762D02*
X476250Y-236728D01*
X333502Y-254762D02*
X458216D01*
X461518Y-235458D02*
Y-227928D01*
X461560Y-227886D01*
X452882Y-244094D02*
X461518Y-235458D01*
X328930Y-244094D02*
X452882D01*
X346456Y-170840D02*
Y-169672D01*
X334258Y-178435D02*
X338709Y-173984D01*
X279908Y-167386D02*
Y-161290D01*
Y-167386D02*
X287150Y-174628D01*
X343281Y-189449D02*
Y-174016D01*
X343150Y-189580D02*
X343281Y-189449D01*
Y-174016D02*
X346456Y-170840D01*
X287150Y-189580D02*
Y-174628D01*
X456438Y-41028D02*
X457438D01*
X530860Y-98164D02*
Y-91440D01*
X524510Y-85090D02*
X530860Y-91440D01*
X480060Y-125984D02*
Y-105410D01*
X454526Y-141104D02*
X461518Y-134112D01*
X242570Y-193294D02*
Y-150034D01*
X243760Y-148844D01*
X252886D01*
X253650Y-148080D01*
X319150Y-208406D02*
Y-189580D01*
X357594Y-176553D02*
Y-159607D01*
X359677Y-157524D01*
X367206D01*
X399796Y-147320D02*
X403352Y-143764D01*
X391160Y-147320D02*
X399796D01*
X401828Y-182372D02*
Y-159959D01*
X392310Y-132080D02*
X392430Y-131960D01*
X368650Y-132080D02*
X392310D01*
X73660Y-161798D02*
X83312Y-152146D01*
Y-151892D01*
X73660Y-167252D02*
Y-161798D01*
X73406Y-167506D02*
X73660Y-167252D01*
X13970Y-333502D02*
Y-297330D01*
X52474Y-258826D01*
Y-208833D01*
X53150Y-208157D02*
Y-196211D01*
X52474Y-208833D02*
X53150Y-208157D01*
X297768Y-213868D02*
X302768Y-208868D01*
X116078Y-294640D02*
X126238Y-284480D01*
X116078Y-316842D02*
Y-294640D01*
X23622Y-170554D02*
X23876Y-166624D01*
X26748Y-163752D01*
X41910Y-112776D02*
X45466Y-116332D01*
X52474Y-195535D02*
Y-185752D01*
Y-195535D02*
X53150Y-196211D01*
X26748Y-163752D02*
X39474D01*
X302768Y-208868D02*
Y-189962D01*
X303150Y-189580D01*
X449834Y-310388D02*
X476560Y-337114D01*
Y-357886D02*
Y-337114D01*
X13970Y-67818D02*
Y-51308D01*
Y-67818D02*
X16576Y-70424D01*
Y-91404D02*
Y-70424D01*
X261179Y-164080D02*
X279146Y-146113D01*
X262890Y-155448D02*
X271526Y-146812D01*
X254282Y-155448D02*
X262890D01*
X230751Y-116080D02*
X253650D01*
X229217Y-124080D02*
X253650D01*
Y-164080D02*
X261179D01*
X253650Y-156080D02*
X254282Y-155448D01*
X248786Y-81908D02*
X249682Y-81012D01*
X252476Y-90906D02*
X253650Y-92080D01*
X232918Y-81908D02*
X248786D01*
X252476Y-85598D01*
Y-90906D02*
Y-85598D01*
X270510Y-73940D02*
Y-65278D01*
Y-73940D02*
X271150Y-74580D01*
X343020Y-208280D02*
X343150Y-208150D01*
Y-189580D01*
X480060Y-142360D02*
Y-125984D01*
X479552D02*
X480060D01*
X474726Y-121158D02*
X479552Y-125984D01*
X455472Y-121158D02*
X474726D01*
X444500Y-126104D02*
X444500Y-126104D01*
X443738Y-167012D02*
X444246Y-167520D01*
X420878Y-150234D02*
X421132Y-149980D01*
Y-122815D01*
X406587Y-108271D02*
X421132Y-122815D01*
X386400Y-108271D02*
X406587D01*
X378591Y-116080D02*
X386400Y-108271D01*
X392430Y-116960D02*
X392550Y-116840D01*
X405638D01*
X460184Y-179768D02*
Y-161290D01*
X456946Y-176530D02*
X460184Y-179768D01*
X397133Y-155264D02*
X401828Y-159959D01*
X386075Y-155264D02*
X397133D01*
X480060Y-157360D02*
X480180Y-157480D01*
X486156D01*
X489146Y-154490D01*
X505460D01*
X460184Y-161290D02*
X471170Y-150304D01*
X477584D01*
X480060Y-147828D01*
Y-142360D01*
X480060Y-142360D02*
X480060Y-142360D01*
X476838Y-170434D02*
X480060Y-167212D01*
X475742Y-170434D02*
X476838D01*
X480060Y-167212D02*
Y-157360D01*
X494180Y-167490D02*
X505460D01*
X475742Y-202692D02*
X478282Y-200152D01*
X368650Y-116080D02*
X378591D01*
X378891Y-148080D02*
X386075Y-155264D01*
X368650Y-148080D02*
X378891D01*
X367206Y-157524D02*
X368650Y-156080D01*
X391160Y-147320D02*
Y-142240D01*
X389000Y-140080D02*
X391160Y-142240D01*
X368650Y-140080D02*
X389000D01*
X505010Y-154940D02*
X505460Y-154490D01*
D63*
X40000Y-324000D02*
D03*
X204000Y-36000D02*
D03*
D64*
X485648Y-59690D02*
D03*
D65*
Y-39690D02*
D03*
D66*
X532210Y-134490D02*
D03*
Y-200490D02*
D03*
D67*
X105156Y-57404D02*
D03*
X156718Y-25146D02*
D03*
X344424Y-37592D02*
D03*
X222758Y-69088D02*
D03*
X323342Y-97790D02*
D03*
X202184Y-127762D02*
D03*
X200152Y-145796D02*
D03*
X279146Y-129032D02*
D03*
X215138Y-122174D02*
D03*
X271526Y-121920D02*
D03*
X203962Y-111252D02*
D03*
X249682Y-74676D02*
D03*
X123444Y-194056D02*
D03*
X152908Y-175006D02*
D03*
X410972Y-12954D02*
D03*
X379222Y-67310D02*
D03*
X430784Y-28956D02*
D03*
X173228Y-90932D02*
D03*
X191770Y-111506D02*
D03*
X356616Y-12700D02*
D03*
X170434Y-53086D02*
D03*
X113030Y-111506D02*
D03*
X114554Y-341122D02*
D03*
X103378Y-197358D02*
D03*
X227076Y-165862D02*
D03*
X233934Y-173736D02*
D03*
X434340Y-213868D02*
D03*
X159512Y-330962D02*
D03*
X326898Y-337312D02*
D03*
X299974Y-153924D02*
D03*
X290322Y-125984D02*
D03*
X332486Y-125222D02*
D03*
X351282Y-133096D02*
D03*
X100076Y-90678D02*
D03*
X103124Y-118872D02*
D03*
X97028Y-101346D02*
D03*
X227076Y-155194D02*
D03*
X331978Y-169672D02*
D03*
X321056Y-170434D02*
D03*
X346964Y-141732D02*
D03*
X348234Y-152908D02*
D03*
X296560Y-245476D02*
D03*
X274574Y-205232D02*
D03*
X299212Y-316484D02*
D03*
X88646Y-131826D02*
D03*
X333502Y-254762D02*
D03*
X328930Y-244094D02*
D03*
X346456Y-169672D02*
D03*
X279908Y-161290D02*
D03*
X461518Y-134112D02*
D03*
X318262Y-245110D02*
D03*
X319150Y-208406D02*
D03*
X403352Y-143764D02*
D03*
X83312Y-151892D02*
D03*
X76962Y-198374D02*
D03*
X214122Y-255016D02*
D03*
X170434Y-73406D02*
D03*
X14478Y-204216D02*
D03*
X22098Y-57404D02*
D03*
X420878Y-200152D02*
D03*
X405638Y-116840D02*
D03*
X475742Y-170434D02*
D03*
M02*
