G04*
G04 #@! TF.GenerationSoftware,Altium Limited,Altium Designer,19.1.5 (86)*
G04*
G04 Layer_Color=8421504*
%FSLAX44Y44*%
%MOMM*%
G71*
G01*
G75*
%ADD18R,0.8000X2.6000*%
%ADD19R,0.4000X0.6000*%
%ADD20R,2.4130X0.8800*%
%ADD21R,0.7000X0.9000*%
%ADD22R,0.9000X0.7000*%
%ADD23R,0.3000X0.6000*%
%ADD24R,0.6000X0.3000*%
%ADD25R,1.0000X3.1500*%
%ADD26R,1.0000X0.7000*%
%ADD27R,1.3000X1.0000*%
%ADD28R,1.0000X1.3000*%
%ADD29R,0.3500X0.8500*%
%ADD30R,1.0000X3.2000*%
G04:AMPARAMS|DCode=31|XSize=0.95mm|YSize=0.95mm|CornerRadius=0mm|HoleSize=0mm|Usage=FLASHONLY|Rotation=90.000|XOffset=0mm|YOffset=0mm|HoleType=Round|Shape=RoundedRectangle|*
%AMROUNDEDRECTD31*
21,1,0.9500,0.9500,0,0,90.0*
21,1,0.9500,0.9500,0,0,90.0*
1,1,0.0000,0.4750,0.4750*
1,1,0.0000,0.4750,-0.4750*
1,1,0.0000,-0.4750,-0.4750*
1,1,0.0000,-0.4750,0.4750*
%
%ADD31ROUNDEDRECTD31*%
%ADD32R,1.5000X0.6000*%
%ADD33R,0.6000X1.5000*%
%ADD34R,1.1000X0.6500*%
%ADD35R,1.9000X1.9000*%
%ADD36R,1.4000X1.6000*%
%ADD37R,1.3500X0.4000*%
D18*
X294372Y-22606D02*
D03*
X309372D02*
D03*
X324372D02*
D03*
D19*
X115316Y-44458D02*
D03*
X121316D02*
D03*
X127316D02*
D03*
X133316D02*
D03*
X139316D02*
D03*
Y-22458D02*
D03*
X133316D02*
D03*
X127316D02*
D03*
X121316D02*
D03*
X115316D02*
D03*
D20*
X127000Y-32512D02*
D03*
D21*
X135262Y-59944D02*
D03*
X120262D02*
D03*
X59048Y-140208D02*
D03*
X74048D02*
D03*
X245752Y-240030D02*
D03*
X230752D02*
D03*
X467494Y-189230D02*
D03*
X452494D02*
D03*
X467494Y-202692D02*
D03*
X452494D02*
D03*
X262262Y-206248D02*
D03*
X247262D02*
D03*
X46094Y-202184D02*
D03*
X61094D02*
D03*
X343034Y-53848D02*
D03*
X328034D02*
D03*
X358020Y-208280D02*
D03*
X343020D02*
D03*
D22*
X112776Y-224670D02*
D03*
Y-209670D02*
D03*
X495808Y-97910D02*
D03*
Y-112910D02*
D03*
X444500Y-126104D02*
D03*
Y-141104D02*
D03*
X126238Y-209670D02*
D03*
Y-224670D02*
D03*
X140716Y-209670D02*
D03*
Y-224670D02*
D03*
X444246Y-167520D02*
D03*
Y-152520D02*
D03*
X377444Y-49410D02*
D03*
Y-34410D02*
D03*
X431038Y-54998D02*
D03*
Y-39998D02*
D03*
X232918Y-81908D02*
D03*
Y-96908D02*
D03*
X158496Y-48782D02*
D03*
Y-33782D02*
D03*
X195072Y-181998D02*
D03*
Y-166998D02*
D03*
X181102Y-182252D02*
D03*
Y-167252D02*
D03*
X23622Y-170554D02*
D03*
Y-185554D02*
D03*
X73406Y-167506D02*
D03*
Y-182506D02*
D03*
X391160Y-162320D02*
D03*
Y-147320D02*
D03*
X480060Y-142360D02*
D03*
Y-157360D02*
D03*
X456438Y-26028D02*
D03*
Y-41028D02*
D03*
X392430Y-116960D02*
D03*
Y-131960D02*
D03*
D23*
X147592Y-162926D02*
D03*
X152592D02*
D03*
X157592D02*
D03*
Y-186926D02*
D03*
X152592D02*
D03*
X147592D02*
D03*
D24*
X164592Y-164926D02*
D03*
Y-169926D02*
D03*
Y-174926D02*
D03*
Y-179926D02*
D03*
Y-184926D02*
D03*
X140592D02*
D03*
Y-179926D02*
D03*
Y-174926D02*
D03*
Y-169926D02*
D03*
Y-164926D02*
D03*
D25*
X116078Y-316842D02*
D03*
Y-266342D02*
D03*
X141478Y-316842D02*
D03*
Y-266342D02*
D03*
X90678Y-316842D02*
D03*
Y-266342D02*
D03*
D26*
X391036Y-49378D02*
D03*
Y-30378D02*
D03*
X415036Y-49378D02*
D03*
Y-39878D02*
D03*
Y-30378D02*
D03*
D27*
X278560Y-285386D02*
D03*
Y-240386D02*
D03*
Y-255386D02*
D03*
Y-270386D02*
D03*
Y-300386D02*
D03*
Y-315386D02*
D03*
Y-330386D02*
D03*
Y-345386D02*
D03*
D28*
X296560Y-357886D02*
D03*
X311560D02*
D03*
X326560D02*
D03*
X341560D02*
D03*
X356560D02*
D03*
X371560D02*
D03*
X386560D02*
D03*
X401560D02*
D03*
X416560D02*
D03*
X431560D02*
D03*
X446560D02*
D03*
X461560D02*
D03*
X476560D02*
D03*
Y-227886D02*
D03*
X461560D02*
D03*
X446560D02*
D03*
X431560D02*
D03*
X416560D02*
D03*
X401560D02*
D03*
X386560D02*
D03*
X371560D02*
D03*
X356560D02*
D03*
X341560D02*
D03*
X326560D02*
D03*
X311560D02*
D03*
X296560D02*
D03*
D29*
X52474Y-163752D02*
D03*
X45974D02*
D03*
X39474D02*
D03*
X52474Y-185752D02*
D03*
X45974D02*
D03*
X39474D02*
D03*
D30*
X193360Y-281722D02*
D03*
X233360D02*
D03*
X193360Y-349722D02*
D03*
X233360D02*
D03*
X16576Y-23404D02*
D03*
X56576D02*
D03*
X16576Y-91404D02*
D03*
X56576D02*
D03*
D31*
X420878Y-150234D02*
D03*
Y-165234D02*
D03*
X530860Y-113164D02*
D03*
Y-98164D02*
D03*
D32*
X368650Y-172080D02*
D03*
Y-164080D02*
D03*
Y-156080D02*
D03*
Y-148080D02*
D03*
Y-140080D02*
D03*
Y-132080D02*
D03*
Y-124080D02*
D03*
Y-116080D02*
D03*
Y-108080D02*
D03*
Y-100080D02*
D03*
Y-92080D02*
D03*
X253650D02*
D03*
Y-100080D02*
D03*
Y-108080D02*
D03*
Y-116080D02*
D03*
Y-124080D02*
D03*
Y-132080D02*
D03*
Y-140080D02*
D03*
Y-148080D02*
D03*
Y-156080D02*
D03*
Y-164080D02*
D03*
Y-172080D02*
D03*
D33*
X351150Y-74580D02*
D03*
X343150D02*
D03*
X335150D02*
D03*
X327150D02*
D03*
X319150D02*
D03*
X311150D02*
D03*
X303150D02*
D03*
X295150D02*
D03*
X287150D02*
D03*
X279150D02*
D03*
X271150D02*
D03*
Y-189580D02*
D03*
X279150D02*
D03*
X287150D02*
D03*
X295150D02*
D03*
X303150D02*
D03*
X311150D02*
D03*
X319150D02*
D03*
X327150D02*
D03*
X335150D02*
D03*
X343150D02*
D03*
X351150D02*
D03*
D34*
X454004Y-105911D02*
D03*
Y-96411D02*
D03*
Y-86911D02*
D03*
X430004D02*
D03*
Y-105911D02*
D03*
D35*
X532210Y-155490D02*
D03*
Y-179490D02*
D03*
D36*
X507710Y-135490D02*
D03*
Y-199490D02*
D03*
D37*
X505460Y-154490D02*
D03*
Y-160990D02*
D03*
Y-167490D02*
D03*
Y-173990D02*
D03*
Y-180490D02*
D03*
M02*
