M48
;Layer_Color=9474304
;FILE_FORMAT=4:4
METRIC,LZ
;TYPE=PLATED
T1F00S00C0.3000
T3F00S00C0.9000
T4F00S00C2.0015
%
T01
X00114554Y-00341122
X00159512Y-00330962
X00214122Y-00255016
X0029656Y-00245476
X00318262Y-0024511
X0032893Y-00244094
X00333502Y-00254762
X00326898Y-00337312
X00299212Y-00316484
X0031915Y-00208406
X00321056Y-00170434
X00331978Y-00169672
X00346456
X00348234Y-00152908
X00346964Y-00141732
X00351282Y-00133096
X00332486Y-00125222
X00323342Y-0009779
X00290322Y-00125984
X00279146Y-00129032
X00271526Y-0012192
X00279908Y-0016129
X00299974Y-00153924
X00227076Y-00155194
Y-00165862
X00233934Y-00173736
X00200152Y-00145796
X00202184Y-00127762
X00203962Y-00111252
X0019177Y-00111506
X00215138Y-00122174
X00222758Y-00069088
X00249682Y-00074676
X00170434Y-00073406
X00173228Y-00090932
X00170434Y-00053086
X00156718Y-00025146
X00152908Y-00175006
X00274574Y-00205232
X00420878Y-00200152
X0043434Y-00213868
X00475742Y-00170434
X00461518Y-00134112
X00403352Y-00143764
X00405638Y-0011684
X00379222Y-0006731
X00344424Y-00037592
X00356616Y-000127
X00410972Y-00012954
X00430784Y-00028956
X00105156Y-00057404
X00100076Y-00090678
X00097028Y-00101346
X00103124Y-00118872
X0011303Y-00111506
X00088646Y-00131826
X00083312Y-00151892
X00076962Y-00198374
X00103378Y-00197358
X00123444Y-00194056
X00014478Y-00204216
X00022098Y-00057404
T03
X00485648Y-0005969
Y-0003969
T04
X0004Y-00324
X00204Y-00036
M30
