G04*
G04 #@! TF.GenerationSoftware,Altium Limited,Altium Designer,19.1.5 (86)*
G04*
G04 Layer_Color=16711935*
%FSLAX44Y44*%
%MOMM*%
G71*
G01*
G75*
%ADD57C,2.1031*%
%ADD58C,1.5532*%
%ADD59R,1.5532X1.5532*%
%ADD60O,2.0032X1.2032*%
%ADD61C,0.8382*%
%ADD70R,2.2532X0.9632*%
D57*
X40000Y-324000D02*
D03*
X204000Y-36000D02*
D03*
D58*
X485648Y-59690D02*
D03*
D59*
Y-39690D02*
D03*
D60*
X532210Y-134490D02*
D03*
Y-200490D02*
D03*
D61*
X105156Y-57404D02*
D03*
X156718Y-25146D02*
D03*
X344424Y-37592D02*
D03*
X222758Y-69088D02*
D03*
X323342Y-97790D02*
D03*
X202184Y-127762D02*
D03*
X200152Y-145796D02*
D03*
X279146Y-129032D02*
D03*
X215138Y-122174D02*
D03*
X271526Y-121920D02*
D03*
X203962Y-111252D02*
D03*
X249682Y-74676D02*
D03*
X123444Y-194056D02*
D03*
X152908Y-175006D02*
D03*
X410972Y-12954D02*
D03*
X379222Y-67310D02*
D03*
X430784Y-28956D02*
D03*
X173228Y-90932D02*
D03*
X191770Y-111506D02*
D03*
X356616Y-12700D02*
D03*
X170434Y-53086D02*
D03*
X113030Y-111506D02*
D03*
X114554Y-341122D02*
D03*
X103378Y-197358D02*
D03*
X227076Y-165862D02*
D03*
X233934Y-173736D02*
D03*
X434340Y-213868D02*
D03*
X159512Y-330962D02*
D03*
X326898Y-337312D02*
D03*
X299974Y-153924D02*
D03*
X290322Y-125984D02*
D03*
X332486Y-125222D02*
D03*
X351282Y-133096D02*
D03*
X100076Y-90678D02*
D03*
X103124Y-118872D02*
D03*
X97028Y-101346D02*
D03*
X227076Y-155194D02*
D03*
X331978Y-169672D02*
D03*
X321056Y-170434D02*
D03*
X346964Y-141732D02*
D03*
X348234Y-152908D02*
D03*
X296560Y-245476D02*
D03*
X274574Y-205232D02*
D03*
X299212Y-316484D02*
D03*
X88646Y-131826D02*
D03*
X333502Y-254762D02*
D03*
X328930Y-244094D02*
D03*
X346456Y-169672D02*
D03*
X279908Y-161290D02*
D03*
X461518Y-134112D02*
D03*
X318262Y-245110D02*
D03*
X319150Y-208406D02*
D03*
X403352Y-143764D02*
D03*
X83312Y-151892D02*
D03*
X76962Y-198374D02*
D03*
X214122Y-255016D02*
D03*
X170434Y-73406D02*
D03*
X14478Y-204216D02*
D03*
X22098Y-57404D02*
D03*
X420878Y-200152D02*
D03*
X405638Y-116840D02*
D03*
X475742Y-170434D02*
D03*
D70*
X40640Y-52070D02*
D03*
Y-64770D02*
D03*
Y-77470D02*
D03*
Y-90170D02*
D03*
Y-102870D02*
D03*
X76140Y-52070D02*
D03*
D03*
Y-64770D02*
D03*
Y-77470D02*
D03*
Y-90170D02*
D03*
Y-102870D02*
D03*
M02*
